<svg viewBox="0 0 1080 1080" xml:space="preserve" xmlns="http://www.w3.org/2000/svg" enable-background="new 0 0 1080 1080"><path d="m333.439 711.101 87.696 78.841-58.079 168.351C356.511 977.268 338.637 990 318.562 990H108.934c-32.064 0-54.724-31.349-44.687-61.791l258.274-782.66C333.467 112.412 364.458 90 399.355 90h1.43c19.057 4.262 79.611 170.001 140.577 351.442l-82.223 238.31-115.608 3.685c-14.272.467-20.706 18.094-10.092 27.664z" fill="none" stroke="#ffffff" stroke-width="13" stroke-linecap="round" stroke-linejoin="round" class="stroke-2b4b9b"></path><path d="M962.735 990H643.687s84.176 0 48.179-78.731c0 0-31.624-103.26-74.221-236.55-23.264-72.791-49.829-154.519-76.283-233.277C480.396 260.001 419.842 94.262 400.785 90h272.382c32.752 0 61.901 20.734 72.654 51.671l269.219 774.768c12.511 35.997-14.218 73.561-52.305 73.561z" fill="none" stroke="#ffffff" stroke-width="13" stroke-linecap="round" stroke-linejoin="round" class="stroke-2b4b9b"></path><path d="M643.687 990 421.135 789.942l-87.696-78.841c-10.614-9.57-4.18-27.197 10.092-27.664l115.608-3.685 158.507-5.032c30.707 96.087 55.712 176.568 67.279 214.009 3.442 11.141 7.361 22.103 11.233 33.102C720.156 990 643.687 990 643.687 990z" fill="none" stroke="#ffffff" stroke-width="13" stroke-linecap="round" stroke-linejoin="round" class="stroke-2b4b9b"></path></svg>